# xmcd
#
# Track frame offsets:
#	150
#	18253
#	34772
#	45016
#	57926
#	70642
#	85999
#	101477
#	113955
#	132317
#	144735
#	160336
#	179805
#	199321
#	213985
#	228720
#	242737
#	266667
#	284840
#	301771
#	317693
#
# Disc length: 4447 seconds
#
# Revision: 0
# Processed by: cddbd v1.5.2PL0 Copyright (c) Steve Scherf et al.
# Submitted via: EZCDAudioConverter 1.3.4.1
#
DISCID=35115d15
DTITLE=Catherine Britt - The Hillbilly Pickin’ Ramblin’ Girl So Far (Deluxe Ed
DTITLE=ition) The B-Sides and Rarities
DYEAR=2013
DGENRE=Country
TTITLE0=Catherine Britt - It's All Up To You 
TTITLE1=Catherine Britt - Slow And Steady (Live) 
TTITLE2=Catherine Britt - Big Rock Candy Mountain 
TTITLE3=Catherine Britt - Bad News Travels Fast
TTITLE4=Catherine Britt - He Don't Care About Me 
TTITLE5=Catherine Britt (Feat Lee Kernaghan)  - Love Hurts (Feat Lee Kernaghan
TTITLE5=) 
TTITLE6=Catherine Britt - If I Could Start Today Again 
TTITLE7=Catherine Britt - The Simple Life 
TTITLE8=Catherine Britt - Swingin' Door (Alternative Version) 
TTITLE9=Catherine Britt - Sweet Emmylou 
TTITLE10=Catherine Britt - I Hope That I Don't Fall In Love With You 
TTITLE11=Catherine Britt - Why Does It Always Rain On Me 
TTITLE12=Catherine Britt - Into My Arms 
TTITLE13=Catherine Britt - Love You Anymore 
TTITLE14=Catherine Britt - Heavy Heart 
TTITLE15=Catherine Britt - Can’t Say I Didn’t Love You 
TTITLE16=Catherine Britt - How To Make Gravy 
TTITLE17=Catherine Britt - Fake Plastic Trees 
TTITLE18=Catherine Britt - Two Steps 
TTITLE19=Catherine Britt - All I Recall 
TTITLE20=Catherine Britt - I Thought About It 
EXTD=
EXTT0=
EXTT1=
EXTT2=
EXTT3=
EXTT4=
EXTT5=
EXTT6=
EXTT7=
EXTT8=
EXTT9=
EXTT10=
EXTT11=
EXTT12=
EXTT13=
EXTT14=
EXTT15=
EXTT16=
EXTT17=
EXTT18=
EXTT19=
EXTT20=
PLAYORDER=
